# xmcd CD database file
#
# Track frame offsets:
#	182
#	43122
#	84075
#	112500
#	156442
#	179260
#	209622
#
# Disc length: 3188 seconds
#
# Revision: 0
# Processed by: cddbd v1.5.2PL0 Copyright (c) Steve Scherf et al.
# Submitted via: CDex 1.51
#
DISCID=500c7207
DTITLE=Anthony Ortega - On Evidence
DYEAR=1992
DGENRE=Jazz
TTITLE0=Tyler
TTITLE1=Avignon
TTITLE2=Gone Again
TTITLE3=Norge
TTITLE4=Little Lou
TTITLE5=Moon´s Ago
TTITLE6=Warm Canto
EXTD=YEAR: 1992
EXTT0=
EXTT1=
EXTT2=
EXTT3=
EXTT4=
EXTT5=
EXTT6=
PLAYORDER=
